HIERARCHY
ROOT hip
{
  OFFSET 0.00112043 5.09927 -9.65472
  CHANNELS 6 Xposition Yposition Zposition Zrotation Xrotation Yrotation
  JOINT abdomen
  {
    OFFSET 0 -1.186 -1.5018
    CHANNELS 3 Zrotation Xrotation Yrotation
    JOINT abdomen2
    {
      OFFSET 0 9.964 0.2134
      CHANNELS 3 Zrotation Xrotation Yrotation
      JOINT chest
      {
        OFFSET 0 13.134 -3.2573
        CHANNELS 3 Zrotation Xrotation Yrotation
        JOINT neck
        {
          OFFSET 0 20.686 -1.6905
          CHANNELS 3 Zrotation Xrotation Yrotation
          JOINT head
          {
            OFFSET 0 7.238 -0.1237
            CHANNELS 3 Zrotation Xrotation Yrotation
            End Site
            {
              OFFSET 0 0 0
            }
          }
        }
        JOINT lCollar
        {
          OFFSET 1.7069 20.075 5.0056
          CHANNELS 3 Zrotation Xrotation Yrotation
          JOINT lShldr
          {
            OFFSET 13.6458 -0.047 -4.849
            CHANNELS 3 Zrotation Xrotation Yrotation
            JOINT lForeArm
            {
              OFFSET 28.3255 -0.9759 2.2888
              CHANNELS 3 Zrotation Xrotation Yrotation
              JOINT lHand
              {
                OFFSET 22.1583 -0.53 10.8316
                CHANNELS 3 Zrotation Xrotation Yrotation
                JOINT lThumb1
                {
                  OFFSET 0.786 0.112 2.5817
                  CHANNELS 3 Zrotation Xrotation Yrotation
                  JOINT lThumb2
                  {
                    OFFSET 0.3601 -0.878 4.2331
                    CHANNELS 3 Zrotation Xrotation Yrotation
                    JOINT lThumb2_End
                    {
                      OFFSET 1.8127 -1.216 2.2227
                      CHANNELS 3 Zrotation Xrotation Yrotation
                      End Site
                      {
                        OFFSET 0.0181 -0.0122 0.0222
                      }
                    }
                  }
                }
                JOINT lCarpal1
                {
                  OFFSET 0.9571 1.114 1.7695
                  CHANNELS 3 Zrotation Xrotation Yrotation
                  JOINT lIndex1
                  {
                    OFFSET 4.1246 0.487 4.1451
                    CHANNELS 3 Zrotation Xrotation Yrotation
                    JOINT lIndex2
                    {
                      OFFSET 3.4052 -1.454 2.7682
                      CHANNELS 3 Zrotation Xrotation Yrotation
                      JOINT lIndex2_End
                      {
                        OFFSET 1.4531 -1.795 1.2713
                        CHANNELS 3 Zrotation Xrotation Yrotation
                        End Site
                        {
                          OFFSET 0.0145 -0.0179 0.0127
                        }
                      }
                    }
                  }
                  JOINT lMid1
                  {
                    OFFSET 5.6954 0.21 2.1184
                    CHANNELS 3 Zrotation Xrotation Yrotation
                    JOINT lMid2
                    {
                      OFFSET 3.9766 -1.54 2.3863
                      CHANNELS 3 Zrotation Xrotation Yrotation
                      JOINT lMid2_End
                      {
                        OFFSET 1.4042 -1.926 1.125
                        CHANNELS 3 Zrotation Xrotation Yrotation
                        End Site
                        {
                          OFFSET 0.014 -0.0193 0.0113
                        }
                      }
                    }
                  }
                }
                JOINT lCarpal2
                {
                  OFFSET 2.0956 0.66 -0.3894
                  CHANNELS 3 Zrotation Xrotation Yrotation
                  JOINT lRing1
                  {
                    OFFSET 5.0395 -0.09 2.4971
                    CHANNELS 3 Zrotation Xrotation Yrotation
                    JOINT lRing2
                    {
                      OFFSET 3.7921 -1.552 1.4806
                      CHANNELS 3 Zrotation Xrotation Yrotation
                      JOINT lRing2_End
                      {
                        OFFSET 1.4655 -1.808 0.9609
                        CHANNELS 3 Zrotation Xrotation Yrotation
                        End Site
                        {
                          OFFSET 0.0147 -0.0181 0.0096
                        }
                      }
                    }
                  }
                  JOINT lPinky1
                  {
                    OFFSET 4.9141 -1.269 0.3591
                    CHANNELS 3 Zrotation Xrotation Yrotation
                    JOINT lPinky2
                    {
                      OFFSET 3.1477 -1.685 0.8462
                      CHANNELS 3 Zrotation Xrotation Yrotation
                      JOINT lPinky2_End
                      {
                        OFFSET 0.8055 -1.585 0.7955
                        CHANNELS 3 Zrotation Xrotation Yrotation
                        End Site
                        {
                          OFFSET 0.0081 -0.0158 0.008
                        }
                      }
                    }
                  }
                }
              }
            }
          }
        }
        JOINT rCollar
        {
          OFFSET -1.7069 20.075 5.0056
          CHANNELS 3 Zrotation Xrotation Yrotation
          JOINT rShldr
          {
            OFFSET -13.6458 -0.047 -4.849
            CHANNELS 3 Zrotation Xrotation Yrotation
            JOINT rForeArm
            {
              OFFSET -28.3255 -0.9759 2.2888
              CHANNELS 3 Zrotation Xrotation Yrotation
              JOINT rHand
              {
                OFFSET -22.1583 -0.53 10.8316
                CHANNELS 3 Zrotation Xrotation Yrotation
                JOINT rThumb1
                {
                  OFFSET -0.786 0.112 2.5817
                  CHANNELS 3 Zrotation Xrotation Yrotation
                  JOINT rThumb2
                  {
                    OFFSET -0.3601 -0.878 4.2331
                    CHANNELS 3 Zrotation Xrotation Yrotation
                    JOINT rThumb2_End
                    {
                      OFFSET -1.8127 -1.216 2.2227
                      CHANNELS 3 Zrotation Xrotation Yrotation
                      End Site
                      {
                        OFFSET -0.0181 -0.0122 0.0222
                      }
                    }
                  }
                }
                JOINT rCarpal1
                {
                  OFFSET -0.9571 1.114 1.7695
                  CHANNELS 3 Zrotation Xrotation Yrotation
                  JOINT rIndex1
                  {
                    OFFSET -4.1246 0.487 4.1451
                    CHANNELS 3 Zrotation Xrotation Yrotation
                    JOINT rIndex2
                    {
                      OFFSET -3.4052 -1.454 2.7682
                      CHANNELS 3 Zrotation Xrotation Yrotation
                      JOINT rIndex2_End
                      {
                        OFFSET -1.4531 -1.795 1.2713
                        CHANNELS 3 Zrotation Xrotation Yrotation
                        End Site
                        {
                          OFFSET -0.0145 -0.018 0.0127
                        }
                      }
                    }
                  }
                  JOINT rMid1
                  {
                    OFFSET -5.6954 0.21 2.1184
                    CHANNELS 3 Zrotation Xrotation Yrotation
                    JOINT rMid2
                    {
                      OFFSET -3.9766 -1.54 2.3863
                      CHANNELS 3 Zrotation Xrotation Yrotation
                      JOINT rMid2_End
                      {
                        OFFSET -1.4042 -1.926 1.125
                        CHANNELS 3 Zrotation Xrotation Yrotation
                        End Site
                        {
                          OFFSET -0.014 -0.0193 0.0113
                        }
                      }
                    }
                  }
                }
                JOINT rCarpal2
                {
                  OFFSET -2.0956 0.66 -0.3894
                  CHANNELS 3 Zrotation Xrotation Yrotation
                  JOINT rRing1
                  {
                    OFFSET -5.0395 -0.09 2.4971
                    CHANNELS 3 Zrotation Xrotation Yrotation
                    JOINT rRing2
                    {
                      OFFSET -3.7921 -1.552 1.4806
                      CHANNELS 3 Zrotation Xrotation Yrotation
                      JOINT rRing2_End
                      {
                        OFFSET -1.4655 -1.808 0.9609
                        CHANNELS 3 Zrotation Xrotation Yrotation
                        End Site
                        {
                          OFFSET -0.0147 -0.0181 0.0096
                        }
                      }
                    }
                  }
                  JOINT rPinky1
                  {
                    OFFSET -4.9141 -1.269 0.3592
                    CHANNELS 3 Zrotation Xrotation Yrotation
                    JOINT rPinky2
                    {
                      OFFSET -3.1477 -1.685 0.8462
                      CHANNELS 3 Zrotation Xrotation Yrotation
                      JOINT rPinky2_End
                      {
                        OFFSET -0.8055 -1.585 0.7955
                        CHANNELS 3 Zrotation Xrotation Yrotation
                        End Site
                        {
                          OFFSET -0.0081 -0.0158 0.008
                        }
                      }
                    }
                  }
                }
              }
            }
          }
        }
      }
    }
  }
  JOINT lThigh
  {
    OFFSET 8.367 -8.2066 0.5982
    CHANNELS 3 Zrotation Xrotation Yrotation
    JOINT lShin
    {
      OFFSET 2.1923 -43.463 -0.4932
      CHANNELS 3 Zrotation Xrotation Yrotation
      JOINT lFoot
      {
        OFFSET 0.7333 -45.8593 -2.6451
        CHANNELS 3 Zrotation Xrotation Yrotation
        End Site
        {
          OFFSET 2.6618 -4.2699 12.3931
        }
      }
    }
  }
  JOINT rThigh
  {
    OFFSET -8.367 -8.2066 0.5982
    CHANNELS 3 Zrotation Xrotation Yrotation
    JOINT rShin
    {
      OFFSET -2.1923 -43.463 -0.4931
      CHANNELS 3 Zrotation Xrotation Yrotation
      JOINT rFoot
      {
        OFFSET -0.7333 -45.8593 -2.6451
        CHANNELS 3 Zrotation Xrotation Yrotation
        End Site
        {
          OFFSET -2.6618 -4.2699 12.3931
        }
      }
    }
  }
}
MOTION
Frames:	4
Frame Time:	0.0333333
42.3106 41.1711 55.6708 0 67.7949 -0 -0.40342 8.23271 -0.0515804 -0.812054 16.4656 -0.0445739 -0.812054 16.4656 -0.0445736 2.12471e-006 -50.0013 1.36283e-006 3.31872e-007 -54.0014 4.76041e-008 -16.7913 2.74268 8.28016 36.3803 -29.6972 -63.4813 2.85211 -10.2208 1.77936 56.1021 -17.0695 9.48182 -0 -5.96354e-015 -0 -0 -5.1684e-015 -0 -3.18055e-015 -1.98785e-015 -1.59028e-015 7.72434e-032 -2.78299e-015 1.59028e-015 -4.30356e-031 5.1684e-015 4.77083e-015 -3.18055e-015 -5.1684e-015 1.59028e-015 -6.36111e-015 -3.18055e-015 -0 -4.30356e-031 5.1684e-015 4.77083e-015 -3.18055e-015 -5.1684e-015 1.59028e-015 -6.36111e-015 -3.18055e-015 -0 7.72434e-032 -2.78299e-015 1.59028e-015 -4.30356e-031 5.1684e-015 4.77083e-015 -3.18055e-015 -5.1684e-015 1.59028e-015 -6.36111e-015 -3.18055e-015 -0 -4.30356e-031 5.1684e-015 4.77083e-015 -3.18055e-015 -5.1684e-015 1.59028e-015 -6.36111e-015 -3.18055e-015 -0 16.2913 2.87302 -7.4988 -36.2812 -29.5034 64.2483 -4.81885 -10.2561 -3.16775 -56.131 -17.3388 -9.9572 3.18055e-015 -3.57812e-015 3.97569e-015 3.18055e-015 -5.1684e-015 -7.95139e-016 9.54166e-015 -3.97569e-015 -7.95139e-016 -3.18055e-015 3.97569e-016 2.38542e-015 1.1421e-030 -9.14409e-015 7.15625e-015 6.36111e-015 -3.57812e-015 -7.95139e-016 6.36111e-015 -3.18055e-015 -1.59028e-015 1.1421e-030 -9.14409e-015 7.15625e-015 6.36111e-015 -3.57812e-015 -7.95139e-016 6.36111e-015 -3.18055e-015 -1.59028e-015 -3.18055e-015 3.97569e-016 2.38542e-015 1.1421e-030 -9.14409e-015 7.15625e-015 6.36111e-015 -3.57812e-015 -7.95139e-016 6.36111e-015 -3.18055e-015 -1.59028e-015 1.1421e-030 -9.14409e-015 7.15625e-015 6.36111e-015 -3.57812e-015 -7.95139e-016 6.36111e-015 -3.18055e-015 -1.59028e-015 18.9086 -75.5444 26.2253 136.62 85.7142 -134.796 16.1627 59.297 -6.93908 -19.0668 -75.5215 -26.4871 -135.568 85.6575 133.78 -16.1824 59.3064 6.92684 
42.3106 41.169 55.7134 0 67.595 -0 -0.40393 8.36911 -0.0496902 -0.813688 16.7384 -0.0396322 -0.813688 16.7384 -0.0396318 -8.9859e-007 -50.0013 1.11871e-007 -5.80902e-008 -54.0014 -3.12207e-008 -16.6287 2.40065 8.04944 36.3803 -29.6972 -63.4813 2.85208 -10.2208 1.7794 56.2146 -17.1232 9.57345 -7.28295e-031 8.74653e-015 4.77083e-015 3.18055e-015 9.54166e-015 1.59028e-015 6.36111e-015 1.11319e-014 3.18055e-015 -3.18055e-015 -3.97569e-016 -0 3.18055e-015 1.74931e-014 6.36111e-015 6.36111e-015 1.19271e-014 4.77083e-015 9.54166e-015 9.14409e-015 3.18055e-015 3.18055e-015 1.74931e-014 6.36111e-015 6.36111e-015 1.19271e-014 4.77083e-015 9.54166e-015 9.14409e-015 3.18055e-015 -3.18055e-015 -3.97569e-016 -0 3.18055e-015 1.74931e-014 6.36111e-015 6.36111e-015 1.19271e-014 4.77083e-015 9.54166e-015 9.14409e-015 3.18055e-015 3.18055e-015 1.74931e-014 6.36111e-015 6.36111e-015 1.19271e-014 4.77083e-015 9.54166e-015 9.14409e-015 3.18055e-015 16.1569 2.52238 -7.31082 -36.2812 -29.5034 64.2483 -4.81884 -10.2561 -3.16774 -56.2412 -17.3812 -10.0525 -2.20695e-032 7.95139e-016 1.59028e-015 3.18055e-015 0 7.95139e-016 3.18055e-015 3.18055e-015 -0 2.20695e-032 -7.95139e-016 1.59028e-015 6.36111e-015 -1.74931e-014 7.15625e-015 4.96564e-032 3.57812e-015 -7.95139e-016 -6.36111e-015 2.78299e-015 -1.59028e-015 6.36111e-015 -1.74931e-014 7.15625e-015 4.96564e-032 3.57812e-015 -7.95139e-016 -6.36111e-015 2.78299e-015 -1.59028e-015 2.20695e-032 -7.95139e-016 1.59028e-015 6.36111e-015 -1.74931e-014 7.15625e-015 4.96564e-032 3.57812e-015 -7.95139e-016 -6.36111e-015 2.78299e-015 -1.59028e-015 6.36111e-015 -1.74931e-014 7.15625e-015 4.96564e-032 3.57812e-015 -7.95139e-016 -6.36111e-015 2.78299e-015 -1.59028e-015 18.5985 -75.2767 25.9127 136.638 85.7129 -134.815 16.1626 59.2974 -6.93919 -18.7456 -75.2533 -26.1634 -135.569 85.6574 133.781 -16.1823 59.3067 6.92691 
42.3106 41.1669 55.756 0 67.395 -0 -0.404434 8.50548 -0.0477945 -0.815328 17.0111 -0.0346711 -0.815328 17.0111 -0.0346713 1.37209e-007 -50.0014 -4.64288e-007 -4.75743e-007 -54.0014 -7.38773e-007 -16.4676 2.05807 7.81979 36.3803 -29.6972 -63.4813 2.85213 -10.2208 1.77939 56.3272 -17.1768 9.66521 1.45049e-007 -1.19279e-008 1.03899e-006 -6.36111e-015 2.38542e-015 -0 -3.18055e-015 -7.95139e-016 -0 3.18055e-015 -1.98785e-015 -1.59028e-015 1.45049e-007 -1.19279e-008 1.03899e-006 -6.36111e-015 7.95139e-016 -0 2.20695e-032 -7.95139e-016 1.59028e-015 1.45049e-007 -1.19279e-008 1.03899e-006 -6.36111e-015 7.95139e-016 -0 2.20695e-032 -7.95139e-016 1.59028e-015 3.18055e-015 -1.98785e-015 -1.59028e-015 1.45049e-007 -1.19279e-008 1.03899e-006 -6.36111e-015 7.95139e-016 -0 2.20695e-032 -7.95139e-016 1.59028e-015 1.45049e-007 -1.19279e-008 1.03899e-006 -6.36111e-015 7.95139e-016 -0 2.20695e-032 -7.95139e-016 1.59028e-015 16.0238 2.17141 -7.12375 -36.2812 -29.5034 64.2483 -4.81881 -10.2561 -3.16773 -56.3515 -17.4234 -10.1479 -1.91772e-006 -1.44158e-006 4.55827e-006 -1.65521e-032 3.97569e-016 2.38542e-015 4.41391e-032 -3.18055e-015 7.95139e-016 -1.10348e-032 7.95139e-016 7.95139e-016 -1.91772e-006 -1.44158e-006 4.55827e-006 3.18055e-015 -3.57812e-015 2.38542e-015 3.18055e-015 -2.38542e-015 2.38542e-015 -1.91772e-006 -1.44158e-006 4.55827e-006 3.18055e-015 -3.57812e-015 2.38542e-015 3.18055e-015 -2.38542e-015 2.38542e-015 -1.10348e-032 7.95139e-016 7.95139e-016 -1.91772e-006 -1.44158e-006 4.55827e-006 3.18055e-015 -3.57812e-015 2.38542e-015 3.18055e-015 -2.38542e-015 2.38542e-015 -1.91772e-006 -1.44158e-006 4.55827e-006 3.18055e-015 -3.57812e-015 2.38542e-015 3.18055e-015 -2.38542e-015 2.38542e-015 18.2962 -75.0077 25.6082 136.647 85.7122 -134.825 16.1625 59.2977 -6.93924 -18.4413 -74.9862 -25.8563 -135.588 85.6561 133.801 -16.1822 59.3071 6.927 
42.3106 41.1649 55.7984 0 67.1951 -0 -0.404931 8.64179 -0.0458936 -0.816975 17.2837 -0.0296904 -0.816975 17.2837 -0.0296907 -3.12129e-006 -50.0013 9.60486e-007 -3.85581e-007 -54.0014 6.51121e-008 -16.3078 1.71483 7.59116 36.3803 -29.6972 -63.4813 2.8521 -10.2208 1.77938 56.4399 -17.2302 9.75709 2.59275e-007 -1.13016e-006 3.20127e-006 -6.36111e-015 -2.78299e-015 -1.59028e-015 -9.54166e-015 -1.98785e-015 -0 -6.36111e-015 1.59028e-015 1.59028e-015 2.59275e-007 -1.13016e-006 3.20127e-006 -9.54166e-015 -4.37326e-015 -0 -3.18055e-015 -2.78299e-015 -1.59028e-015 2.59275e-007 -1.13016e-006 3.20127e-006 -9.54166e-015 -4.37326e-015 -0 -3.18055e-015 -2.78299e-015 -1.59028e-015 -6.36111e-015 1.59028e-015 1.59028e-015 2.59275e-007 -1.13016e-006 3.20127e-006 -9.54166e-015 -4.37326e-015 -0 -3.18055e-015 -2.78299e-015 -1.59028e-015 2.59275e-007 -1.13016e-006 3.20127e-006 -9.54166e-015 -4.37326e-015 -0 -3.18055e-015 -2.78299e-015 -1.59028e-015 15.8918 1.82 -6.93755 -36.2812 -29.5034 64.2483 -4.81884 -10.2561 -3.16774 -56.4619 -17.4654 -10.2435 -3.18055e-015 -1.19271e-015 -1.59028e-015 -3.18055e-015 0 -7.95139e-016 -6.36111e-015 0 -1.59028e-015 -3.18055e-015 -1.19271e-015 -1.59028e-015 2.09661e-031 -7.55382e-015 1.59028e-015 -0 -7.95139e-016 -0 -0 -1.19271e-015 -0 2.09661e-031 -7.55382e-015 1.59028e-015 -0 -7.95139e-016 -0 -0 -1.19271e-015 -0 -3.18055e-015 -1.19271e-015 -1.59028e-015 2.09661e-031 -7.55382e-015 1.59028e-015 -0 -7.95139e-016 -0 -0 -1.19271e-015 -0 2.09661e-031 -7.55382e-015 1.59028e-015 -0 -7.95139e-016 -0 -0 -1.19271e-015 -0 18.0011 -74.7374 25.3109 136.643 85.7126 -134.82 16.1624 59.2982 -6.93937 -18.1342 -74.7149 -25.5471 -135.56 85.6581 133.772 -16.1821 59.3075 6.92711 
